<svg xmlns="http://www.w3.org/2000/svg" viewBox="0 0 512 512"><path fill="#ffdea9" d="M456.542 94.919L62.786 487.859l-18.9-18.861-19.695-19.664 393.746-392.94z"/><g fill="#ffbf7b"><path d="M456.523 94.937L62.786 487.859l-18.9-18.861L437.623 76.076z"/><path d="M447.072 104.37l-38.601-38.522s34.736-45.109 45.823-48.896c8.296-2.833 23.225-11.633 29.301-15.311a4.02 4.02 0 014.924.597l22.301 22.255a3.999 3.999 0 01.597 4.915c-3.688 6.062-12.509 20.955-15.348 29.233-3.795 11.064-48.997 45.729-48.997 45.729z"/></g><path d="M486.276 0l8.145 8.128s-13.371 21.343-16.995 31.909c-3.794 11.064-48.99 45.724-48.996 45.729l18.642 18.604s45.202-34.664 48.997-45.729c2.839-8.278 11.661-23.171 15.348-29.233a3.999 3.999 0 00-.597-4.915L486.276 0z" fill="#f4ab69"/><path d="M38.917 510.825L1.178 473.163a4.008 4.008 0 010-5.675l31.467-31.402a4.028 4.028 0 015.687 0l37.739 37.662a4.008 4.008 0 010 5.675l-31.467 31.402a4.028 4.028 0 01-5.687 0z" fill="#ffbf7b"/><path d="M38.917 510.825l-18.481-18.443 37.154-37.077 18.481 18.443a4.008 4.008 0 010 5.675l-31.467 31.402a4.028 4.028 0 01-5.687 0z" fill="#f4ab69"/><g fill="#595959"><circle cx="343.66" cy="169.01" r="7.5"/><circle cx="298.1" cy="214.57" r="7.5"/><circle cx="252.55" cy="260.12" r="7.5"/><circle cx="207" cy="305.67" r="7.5"/><circle cx="161.44" cy="351.23" r="7.5"/></g></svg>