<svg version="1.1" id="Layer_1" xmlns="http://www.w3.org/2000/svg" x="0" y="0" viewBox="0 0 129.6 129.6" xml:space="preserve"><style/><path d="M122.8 69.7c-1.4-.2-2.6.8-2.7 2.2L120 73c-3-.2-10-.9-16.5-4.1-1.6-.8-2.8-2.3-3.3-4.1l-1-4.1c2.3-1.3 5.1-2.5 8.5-3l.4 1.7c.3 1.3 1.6 2.1 2.8 1.8 1.3-.3 2.1-1.6 1.8-2.8l-1.3-5.4c-.3-1.3-1.6-2.1-2.8-1.8-1.3.3-2.1 1.6-1.8 2.8l.4 1.6c-1.7.5-5.2 1.3-8.8 1.5L97.2 52c-.4-1.8 0-3.7 1.1-5.1 4.2-5.5 9.8-9.3 12.5-10.9l1.1 1.6c.7 1.1 2.3 1.5 3.4.7 1.1-.7 1.5-2.3.7-3.4l-3.5-5.4c-.7-1.1-2.3-1.5-3.4-.7-1.1.7-1.5 2.3-.7 3.4l1 1.5c-2.3 2-7.7 6.4-14.4 8.6-1.7.6-3.6.4-5.2-.6l-3.9-2.4c.7-2.5 1.9-5.2 3.8-8l1.4.9c1.1.7 2.6.3 3.3-.8.7-1.1.3-2.6-.8-3.3l-4.7-2.9c-1.1-.7-2.6-.3-3.3.8-.7 1.1-.3 2.6.8 3.3l1.4.9c-.8 1.5-2.6 4.5-5.1 7.2l-4-2.5c-1.6-1-2.6-2.6-2.9-4.4-1-7 .4-13.7 1.2-16.7l2 .2c1.4.2 2.6-.8 2.7-2.2.2-1.4-.8-2.6-2.2-2.7l-6.4-.7c-1.4-.2-2.6.8-2.7 2.2-.2 1.4.8 2.6 2.2 2.7l1.5.2c-.2 3-.9 10-4.1 16.5-.8 1.6-2.3 2.8-4.1 3.3l-4.4 1c-1.4-2.3-2.6-5.2-3.1-8.7l1.7-.4c1.3-.3 2.1-1.6 1.8-2.8-.3-1.3-1.6-2.1-2.8-1.8l-5.4 1.3c-1.3.3-2.1 1.6-1.8 2.8.3 1.3 1.6 2.1 2.8 1.8l1.6-.4c.5 1.7 1.4 5.3 1.5 9.1l-4.4 1c-1.8.4-3.7 0-5.1-1.1-5.8-4.4-9.7-10.4-11.1-13l1.4-.9c1.1-.7 1.5-2.3.7-3.4-.7-1.1-2.3-1.5-3.4-.7l-5.4 3.5c-1.1.7-1.5 2.3-.7 3.4.7 1.1 2.3 1.5 3.4.7l1.3-.9c1.8 1.9 6.6 7.7 9 14.9.6 1.7.4 3.6-.6 5.2l-2.2 3.5c-2.6-.7-5.5-1.8-8.5-4l.9-1.4c.7-1.1.3-2.6-.8-3.3-1.1-.7-2.6-.3-3.3.8l-3 4.9c-.7 1.1-.3 2.6.8 3.3 1.1.7 2.6.3 3.3-.8l.9-1.4c1.6.9 4.8 2.8 7.5 5.5l-2.6 4.2c-1 1.6-2.6 2.6-4.4 2.9-7 1-13.8-.8-16.9-1.7l.2-2c.2-1.4-.8-2.6-2.2-2.7-1.4-.2-2.6.8-2.7 2.2l-.7 6.4c-.2 1.4.8 2.6 2.2 2.7 1.4.2 2.6-.8 2.7-2.2l.2-1.8c3.2.1 9.7 1 15.7 4 1.6.8 2.8 2.3 3.3 4.1l1.2 5.1c-2.2 1.2-4.9 2.3-8.2 2.8l-.4-1.7c-.3-1.3-1.6-2.1-2.8-1.8-1.3.3-2.1 1.6-1.8 2.8l1.3 5.4c.3 1.3 1.6 2.1 2.8 1.8 1.3-.3 2.1-1.6 1.8-2.8l-.4-1.6c1.7-.5 5-1.3 8.5-1.5l1 4.1c.4 1.8 0 3.7-1.1 5.1-4.2 5.6-9.9 9.3-12.6 10.9L22 95c-.7-1.1-2.3-1.5-3.4-.7-1.1.7-1.5 2.3-.7 3.4l3.5 5.4c.7 1.1 2.3 1.5 3.4.7 1.1-.7 1.5-2.3.7-3.4l-1.4-2.2c2.1-1.9 7.7-6.5 14.7-8.8 1.7-.6 3.6-.4 5.2.6l4.3 2.7c-.7 2.7-1.8 5.6-4 8.6l-1.4-.9c-1.1-.7-2.6-.3-3.3.8-.7 1.1-.3 2.6.8 3.3l4.7 2.9c1.1.7 2.6.3 3.3-.8.7-1.1.3-2.6-.8-3.3l-1.4-.9c.9-1.6 2.9-4.9 5.6-7.6l3.3 2.1c1.6 1 2.6 2.6 2.9 4.4 1.1 7.8-.8 15.3-1.5 17.6l-1.5-.2c-1.4-.2-2.6.8-2.7 2.2-.2 1.4.8 2.6 2.2 2.7l6.4.7c1.4.2 2.6-.8 2.7-2.2.2-1.4-.8-2.6-2.2-2.7l-1.9-.2c.1-2.1.5-10.1 4.2-17.4.8-1.6 2.3-2.8 4.1-3.3l4.2-1c1.6 2.4 3 5.6 3.6 9.5l-1.7.4c-1.3.3-2.1 1.6-1.8 2.8.3 1.3 1.6 2.1 2.8 1.8l5.4-1.3c1.3-.3 2.1-1.6 1.8-2.8-.3-1.3-1.6-2.1-2.8-1.8l-1.6.4c-.5-1.9-1.5-5.9-1.5-10l4.2-1c1.8-.4 3.7 0 5.1 1.1 6.5 4.9 10.1 12 11 14l-1 .6c-1.1.7-1.5 2.3-.7 3.4.7 1.1 2.3 1.5 3.4.7l5.4-3.5c1.1-.7 1.5-2.3.7-3.4-.7-1.1-2.3-1.5-3.4-.7l-1.3.9c-1.7-1.8-6.7-7.6-9.1-15-.6-1.7-.4-3.6.6-5.2l2.1-3.4c2.7.6 5.7 1.8 8.6 4l-.9 1.4c-.7 1.1-.3 2.6.8 3.3 1.1.7 2.6.3 3.3-.8l2.9-4.7c.7-1.1.3-2.6-.8-3.3-1.1-.7-2.6-.3-3.3.8l-.9 1.4c-1.6-.9-4.9-2.9-7.7-5.6l2.6-4.3c1-1.6 2.6-2.6 4.4-2.9 7.4-1 14.4.6 17.2 1.3l-.3 2.6c-.2 1.4.8 2.6 2.2 2.7 1.4.2 2.6-.8 2.7-2.2l.7-6.4c.4-1.2-.6-2.5-1.9-2.6zM85.5 47.6c1.9 0 3.4 1.5 3.4 3.4s-1.5 3.4-3.4 3.4-3.4-1.5-3.4-3.4 1.5-3.4 3.4-3.4zm-15-6.8c1.9 0 3.4 1.5 3.4 3.4s-1.5 3.4-3.4 3.4-3.4-1.5-3.4-3.4c.1-1.9 1.6-3.4 3.4-3.4zm-5.1 15.8c1.9 0 3.4 1.5 3.4 3.4s-1.5 3.4-3.4 3.4S62 61.9 62 60s1.5-3.4 3.4-3.4zm-21.9 13c-1.9 0-3.4-1.5-3.4-3.4s1.5-3.4 3.4-3.4 3.4 1.5 3.4 3.4-1.6 3.4-3.4 3.4zM46 56.5c0-1.9 1.5-3.4 3.4-3.4s3.4 1.5 3.4 3.4-1.5 3.4-3.4 3.4-3.4-1.5-3.4-3.4zm6.8 27.3c-1.9 0-3.4-1.5-3.4-3.4s1.5-3.4 3.4-3.4 3.4 1.5 3.4 3.4-1.5 3.4-3.4 3.4zm5-32.9c-1.9 0-3.4-1.5-3.4-3.4s1.5-3.4 3.4-3.4 3.4 1.5 3.4 3.4-1.5 3.4-3.4 3.4zm1.3 22.4c0-1.9 1.5-3.4 3.4-3.4s3.4 1.5 3.4 3.4-1.5 3.4-3.4 3.4-3.4-1.5-3.4-3.4zm7.2 16.8c-1.9 0-3.4-1.5-3.4-3.4s1.5-3.4 3.4-3.4 3.4 1.5 3.4 3.4-1.6 3.4-3.4 3.4zm7.2-13.4c-1.9 0-3.4-1.5-3.4-3.4s1.5-3.4 3.4-3.4 3.4 1.5 3.4 3.4-1.5 3.4-3.4 3.4zm2.7-16.8c-1.9 0-3.4-1.5-3.4-3.4s1.5-3.4 3.4-3.4 3.4 1.5 3.4 3.4-1.5 3.4-3.4 3.4zM83 80.1c-1.9 0-3.4-1.5-3.4-3.4s1.5-3.4 3.4-3.4 3.4 1.5 3.4 3.4-1.6 3.4-3.4 3.4zm3.4-13.3c-1.9 0-3.4-1.5-3.4-3.4s1.5-3.4 3.4-3.4 3.4 1.5 3.4 3.4c-.1 1.9-1.6 3.4-3.4 3.4z" fill="#e22310"/></svg>